<?xml version="1.0" encoding="utf-8"?>
<!-- Generator: Adobe Illustrator 27.4.1, SVG Export Plug-In . SVG Version: 6.00 Build 0)  -->
<svg version="1.1" id="Capa_1" xmlns="http://www.w3.org/2000/svg" xmlns:xlink="http://www.w3.org/1999/xlink" x="0px" y="0px"
	 viewBox="0 0 800 800" style="enable-background:new 0 0 800 800;" xml:space="preserve">
<style type="text/css">
	.st0{fill:#F48840;}
</style>
<path class="st0" d="M595.5,395.4c0-0.5,0-1,0-1.5c0-1.1-0.1-2.1-0.1-3.2c0-0.5-0.1-1.1-0.1-1.6c-0.1-1-0.1-2.1-0.2-3.1
	c0-0.5-0.1-1-0.1-1.5c-0.1-1.2-0.2-2.5-0.3-3.7c0-0.3-0.1-0.6-0.1-0.9c-0.2-1.5-0.3-3-0.5-4.5c-0.1-0.4-0.1-0.9-0.2-1.3
	c-0.1-1.1-0.3-2.1-0.4-3.2c-0.1-0.5-0.2-1.1-0.3-1.6c-0.2-1-0.3-1.9-0.5-2.9c-0.1-0.5-0.2-1.1-0.3-1.6c-0.2-1.1-0.4-2.1-0.6-3.1
	c-0.1-0.4-0.2-0.8-0.2-1.3c-0.3-1.4-0.6-2.9-0.9-4.3c-0.1-0.4-0.2-0.8-0.3-1.2c-0.3-1.1-0.5-2.1-0.8-3.2c-0.1-0.5-0.3-1.1-0.4-1.6
	c-0.2-0.9-0.5-1.8-0.7-2.7c-0.2-0.6-0.3-1.1-0.5-1.7c-0.3-0.9-0.5-1.8-0.8-2.8c-0.2-0.5-0.3-1-0.5-1.5c-0.4-1.4-0.9-2.7-1.3-4.1
	c-0.1-0.3-0.2-0.6-0.3-0.9c-0.4-1.1-0.8-2.2-1.1-3.3c-0.2-0.5-0.4-1.1-0.6-1.6c-0.3-0.8-0.6-1.7-1-2.5c-0.2-0.6-0.4-1.1-0.7-1.7
	c-0.3-0.8-0.7-1.6-1-2.4c-0.2-0.5-0.4-1.1-0.7-1.6c-0.4-1-0.8-1.9-1.3-2.9c-0.2-0.4-0.3-0.7-0.5-1.1c-0.6-1.3-1.2-2.5-1.8-3.8
	c-0.2-0.5-0.5-1-0.8-1.5c-0.4-0.8-0.8-1.6-1.2-2.3c-0.3-0.6-0.6-1.1-0.9-1.7c-0.4-0.7-0.8-1.5-1.2-2.2c-0.3-0.6-0.6-1.1-0.9-1.7
	c-0.4-0.8-0.9-1.6-1.3-2.4c-0.3-0.5-0.5-0.9-0.8-1.4c-0.7-1.2-1.4-2.4-2.1-3.5c-0.3-0.5-0.6-0.9-0.9-1.4c-0.5-0.8-0.9-1.5-1.4-2.2
	c-0.3-0.5-0.7-1.1-1-1.6c-0.4-0.7-0.9-1.4-1.3-2c-0.4-0.5-0.7-1.1-1.1-1.6c-0.5-0.7-1-1.4-1.5-2.1c-0.3-0.5-0.7-1-1-1.4
	c-0.8-1.1-1.6-2.2-2.4-3.3l0,0c-21.4-28.6-50.4-51.2-84-64.7c0,0,0,0,0,0c-1.3-0.5-2.7-1.1-4-1.6c-0.1,0-0.2-0.1-0.3-0.1
	c-1.3-0.5-2.6-0.9-3.9-1.4c-0.2-0.1-0.3-0.1-0.5-0.2c-1.2-0.4-2.5-0.8-3.7-1.2c-0.2-0.1-0.5-0.2-0.7-0.2c-1.2-0.4-2.4-0.8-3.6-1.1
	c-0.3-0.1-0.6-0.2-0.9-0.3c-1.2-0.3-2.3-0.7-3.5-1c-0.4-0.1-0.7-0.2-1.1-0.3c-1.1-0.3-2.2-0.6-3.4-0.9c-0.4-0.1-0.8-0.2-1.3-0.3
	c-1.1-0.3-2.2-0.5-3.2-0.8c-0.5-0.1-1-0.2-1.4-0.3c-1-0.2-2.1-0.4-3.1-0.6c-0.5-0.1-1.1-0.2-1.6-0.3c-1-0.2-2-0.4-3-0.5
	c-0.6-0.1-1.2-0.2-1.8-0.3c-1-0.2-1.9-0.3-2.9-0.5c-0.7-0.1-1.3-0.2-2-0.3c-0.9-0.1-1.8-0.3-2.7-0.4c-0.7-0.1-1.4-0.2-2.1-0.2
	c-0.9-0.1-1.7-0.2-2.6-0.3c-0.8-0.1-1.6-0.1-2.4-0.2c-0.8-0.1-1.6-0.1-2.4-0.2c-0.9-0.1-1.8-0.1-2.6-0.2c-0.7,0-1.5-0.1-2.2-0.1
	c-1-0.1-2.1-0.1-3.1-0.1c-0.6,0-1.2-0.1-1.8-0.1c-1.6,0-3.3-0.1-4.9-0.1c-1.6,0-3.3,0-4.9,0.1c-0.6,0-1.2,0-1.8,0.1
	c-1,0-2.1,0.1-3.1,0.1c-0.7,0-1.5,0.1-2.2,0.1c-0.9,0.1-1.8,0.1-2.6,0.2c-0.8,0.1-1.6,0.1-2.4,0.2c-0.8,0.1-1.6,0.1-2.4,0.2
	c-0.9,0.1-1.7,0.2-2.6,0.3c-0.7,0.1-1.4,0.2-2.1,0.2c-0.9,0.1-1.8,0.2-2.8,0.4c-0.7,0.1-1.3,0.2-2,0.3c-1,0.1-1.9,0.3-2.9,0.5
	c-0.6,0.1-1.2,0.2-1.8,0.3c-1,0.2-2,0.4-3,0.6c-0.5,0.1-1.1,0.2-1.6,0.3c-1,0.2-2.1,0.4-3.1,0.7c-0.5,0.1-0.9,0.2-1.4,0.3
	c-1.1,0.2-2.2,0.5-3.3,0.8c-0.4,0.1-0.8,0.2-1.2,0.3c-1.1,0.3-2.3,0.6-3.4,0.9c-0.4,0.1-0.7,0.2-1.1,0.3c-1.2,0.3-2.3,0.6-3.5,1
	c-0.3,0.1-0.6,0.2-0.9,0.3c-1.2,0.4-2.4,0.7-3.6,1.1c-0.2,0.1-0.5,0.1-0.7,0.2c-1.3,0.4-2.5,0.8-3.8,1.3c-0.2,0.1-0.3,0.1-0.5,0.2
	c-1.3,0.5-2.6,0.9-3.9,1.4c-0.1,0-0.2,0.1-0.2,0.1c-35.4,13.3-65.9,36.6-88.2,66.4c-0.8,1-1.5,2.1-2.3,3.2c-0.4,0.5-0.7,1-1.1,1.5
	c-0.5,0.7-0.9,1.3-1.4,2c-0.4,0.5-0.7,1.1-1.1,1.6c-0.4,0.7-0.9,1.3-1.3,2c-0.4,0.5-0.7,1.1-1.1,1.6c-0.5,0.7-0.9,1.4-1.4,2.2
	c-0.3,0.5-0.6,1-0.9,1.5c-0.7,1.2-1.4,2.3-2.1,3.5c-0.3,0.5-0.5,1-0.8,1.5c-0.4,0.8-0.9,1.5-1.3,2.3c-0.3,0.6-0.6,1.1-0.9,1.7
	c-0.4,0.7-0.8,1.4-1.1,2.2c-0.3,0.6-0.6,1.1-0.9,1.7c-0.4,0.8-0.8,1.5-1.2,2.3c-0.3,0.5-0.5,1-0.8,1.6c-0.6,1.2-1.2,2.5-1.7,3.7
	c-0.2,0.4-0.3,0.8-0.5,1.2c-0.4,1-0.8,1.9-1.3,2.9c-0.2,0.5-0.5,1.1-0.7,1.6c-0.3,0.8-0.7,1.6-1,2.4c-0.2,0.6-0.5,1.1-0.7,1.7
	c-0.3,0.8-0.6,1.7-1,2.5c-0.2,0.5-0.4,1.1-0.6,1.6c-0.4,1.1-0.8,2.2-1.1,3.2c-0.1,0.3-0.2,0.6-0.3,0.9c-0.5,1.4-0.9,2.7-1.3,4.1
	c-0.2,0.5-0.3,1-0.5,1.5c-0.3,0.9-0.6,1.8-0.8,2.8c-0.2,0.6-0.3,1.1-0.5,1.7c-0.3,0.9-0.5,1.8-0.7,2.7c-0.1,0.5-0.3,1.1-0.4,1.6
	c-0.3,1.1-0.5,2.1-0.8,3.2c-0.1,0.4-0.2,0.8-0.3,1.1c-0.3,1.4-0.6,2.9-0.9,4.3c-0.1,0.4-0.2,0.8-0.2,1.3c-0.2,1-0.4,2.1-0.6,3.2
	c-0.1,0.5-0.2,1.1-0.3,1.6c-0.2,1-0.3,1.9-0.5,2.9c-0.1,0.5-0.2,1.1-0.3,1.6c-0.2,1.1-0.3,2.1-0.4,3.2c-0.1,0.4-0.1,0.9-0.2,1.3
	c-0.2,1.5-0.4,3-0.5,4.5c0,0.3-0.1,0.6-0.1,0.9c-0.1,1.2-0.2,2.5-0.3,3.7c0,0.5-0.1,1-0.1,1.5c-0.1,1-0.1,2.1-0.2,3.1
	c0,0.5-0.1,1.1-0.1,1.6c0,1.1-0.1,2.1-0.1,3.2c0,0.5,0,1,0,1.5c0,1.5-0.1,3.1-0.1,4.6c0,1.4,0,2.8,0.1,4.1c0,0.6,0,1.2,0,1.9
	c0,0.5,0,1.1,0.1,1.6c1.3,35.1,12,67.9,29.5,95.9c0,0,0,0,0,0c3.3,5.3,6.9,10.4,10.7,15.4c0,0,0,0.1,0.1,0.1
	c3.8,4.9,7.7,9.6,11.9,14.1c0.1,0.1,0.2,0.2,0.3,0.3c0.8,0.9,1.6,1.7,2.4,2.5c0,0,0.1,0.1,0.1,0.1c2.5,2.6,5.1,5.1,7.8,7.6
	c0.1,0.1,0.2,0.2,0.3,0.2c0.8,0.7,1.6,1.4,2.4,2.2c0.2,0.2,0.4,0.4,0.7,0.6c0.8,0.7,1.6,1.4,2.4,2.1c0.2,0.2,0.4,0.3,0.6,0.5
	c2.5,2.1,5.1,4.2,7.8,6.3c0.3,0.2,0.5,0.4,0.8,0.6c0.8,0.6,1.5,1.1,2.3,1.7c0.4,0.3,0.7,0.5,1.1,0.8c0.7,0.5,1.5,1.1,2.2,1.6
	c0.4,0.2,0.7,0.5,1.1,0.7c2.5,1.7,5.1,3.4,7.7,5c0.4,0.3,0.9,0.5,1.3,0.8c0.7,0.4,1.4,0.9,2.2,1.3c0.5,0.3,1,0.6,1.5,0.9
	c0.7,0.4,1.4,0.8,2.1,1.2c0.5,0.3,1,0.6,1.5,0.9c2.5,1.4,5,2.7,7.6,4c0.6,0.3,1.1,0.6,1.7,0.8c0.7,0.3,1.4,0.7,2.1,1
	c0.6,0.3,1.2,0.5,1.8,0.8c0.7,0.3,1.4,0.7,2.1,1c0.6,0.3,1.2,0.5,1.8,0.8c0.7,0.3,1.4,0.6,2.1,0.9c0,0,0,0,0,0
	c23.3,9.8,48.9,15.2,75.7,15.2c26.5,0,51.7-5.3,74.7-14.8c0,0,0,0,0,0c1.2-0.5,2.4-1,3.5-1.5c0.1-0.1,0.2-0.1,0.4-0.2
	c1.1-0.5,2.3-1,3.4-1.5c0.1,0,0.2-0.1,0.3-0.1c6-2.8,11.8-5.9,17.4-9.2c0.1-0.1,0.2-0.1,0.4-0.2c1-0.6,2-1.2,3-1.8
	c0.2-0.1,0.4-0.3,0.6-0.4c1-0.6,1.9-1.2,2.9-1.8c0.2-0.1,0.4-0.3,0.6-0.4c1-0.6,2-1.3,2.9-2c0,0,0.1-0.1,0.1-0.1
	c3.1-2.2,6.2-4.4,9.2-6.7c0.2-0.1,0.3-0.2,0.5-0.4c0.8-0.6,1.6-1.3,2.4-1.9c0.3-0.3,0.7-0.5,1-0.8c0.7-0.6,1.5-1.2,2.2-1.8
	c0.4-0.3,0.7-0.6,1.1-0.9c0.7-0.6,1.4-1.2,2.1-1.8c0.4-0.3,0.8-0.7,1.1-1c0.7-0.6,1.4-1.2,2-1.8c0.4-0.3,0.7-0.7,1.1-1
	c1.5-1.4,2.9-2.7,4.3-4.1c0.2-0.2,0.4-0.4,0.6-0.6c0.6-0.6,1.1-1.1,1.7-1.7c0.5-0.5,0.9-0.9,1.4-1.4c0.5-0.5,1-1.1,1.6-1.6
	c0.5-0.5,1-1,1.4-1.6c0.5-0.5,1-1.1,1.5-1.6c0.5-0.6,1-1.1,1.5-1.7c0.5-0.5,0.9-1,1.4-1.6c0.5-0.6,1-1.2,1.6-1.9
	c0.4-0.5,0.8-1,1.2-1.5c0.6-0.8,1.3-1.6,1.9-2.4c0.3-0.3,0.5-0.7,0.8-1c0.9-1.1,1.7-2.2,2.6-3.4c0.3-0.4,0.6-0.8,0.9-1.3
	c0.6-0.8,1.1-1.5,1.7-2.3c0.3-0.5,0.7-1,1-1.4c0.5-0.7,1-1.5,1.5-2.2c0.3-0.5,0.7-1,1-1.5c0.5-0.8,1-1.5,1.5-2.3
	c0.3-0.5,0.6-1,0.9-1.4c0.5-0.8,1.1-1.7,1.6-2.5c0.3-0.4,0.5-0.8,0.8-1.2c0.7-1.2,1.5-2.5,2.2-3.7c0,0,0,0,0-0.1c0,0,0,0,0,0
	c15.3-26.6,24.5-57.1,25.7-89.7c0-0.5,0-1.1,0.1-1.6c0-0.6,0-1.2,0-1.9c0-1.4,0.1-2.8,0.1-4.1C595.6,398.5,595.5,396.9,595.5,395.4z
	 M408,265.6l49.3-35.8c4.2,1.4,8.4,3,12.6,4.8c21.4,9,40.6,22,57.1,38.5c9,9,16.9,18.8,23.8,29.3l-17.2,54.4l-51.3,16.9L408,319.6
	V265.6z M273,273c16.5-16.5,35.7-29.4,57.1-38.5c4.1-1.8,8.3-3.3,12.6-4.8l49.3,35.8v54.1l-74.6,54.2L266.5,357l-17.3-54.6
	C256.1,291.8,264,282,273,273z M304.4,514.6l-48.7-7.7c-8.5-11.4-15.6-23.8-21.2-37c-9.2-21.6-13.9-44.6-14.1-68.3l41.2-29.4
	l50.9,16.9l28.8,88.7L304.4,514.6z M477.7,561.9c-2.6,1.2-5.2,2.4-7.8,3.5c-22.1,9.4-45.6,14.1-69.9,14.1
	c-24.3,0-47.8-4.7-69.9-14.1c-3-1.3-5.9-2.6-8.8-4l-5.6-35.5l39.8-39.8h94.7l34.2,34.2L477.7,561.9z M565.5,469.9
	c-4.6,10.8-10.2,21.1-16.7,30.7l-53.2,8.4l-35.5-35.5l27.6-85l50.5-16.6l41.4,29.6C579.4,425.3,574.6,448.3,565.5,469.9z"/>
</svg>
