<?xml version="1.0" encoding="UTF-8"?>
<svg xmlns="http://www.w3.org/2000/svg" viewBox="0 0 800 800">
  <defs>
    <style>
      .cls-1 {
        fill: #fff;
      }

      .cls-2 {
        opacity: .2;
      }

      .cls-2, .cls-3 {
        mix-blend-mode: soft-light;
      }

      .cls-2, .cls-3, .cls-4, .cls-5 {
        fill: #ededed;
      }

      .cls-6 {
        isolation: isolate;
      }

      .cls-7 {
        fill: #1b2028;
      }

      .cls-3 {
        opacity: .48;
      }

      .cls-4 {
        mix-blend-mode: multiply;
      }
    </style>
  </defs>
  <g class="cls-6">
    <g id="Layer_1" data-name="Layer 1">
      <g>
        <circle class="cls-1" cx="400" cy="400" r="139.78" transform="translate(-165.69 400) rotate(-45)"/>
        <path class="cls-5" d="m492.58,295.28c10.96,19.94,17.19,42.84,17.19,67.2,0,77.2-62.58,139.78-139.78,139.78-35.51,0-67.92-13.25-92.58-35.06,23.76,43.26,69.75,72.58,122.59,72.58,77.2,0,139.78-62.58,139.78-139.78,0-41.69-18.26-79.11-47.21-104.72Z"/>
        <path class="cls-4" d="m499.53,301.88c17.21,23.23,27.39,51.98,27.39,83.11,0,77.2-62.58,139.78-139.78,139.78-38.91,0-74.09-15.9-99.44-41.55,25.47,34.31,66.28,56.56,112.3,56.56,77.2,0,139.78-62.58,139.78-139.78,0-38.24-15.37-72.88-40.25-98.12Z"/>
        <path class="cls-7" d="m400,257c-78.85,0-143,64.15-143,143s64.15,143,143,143,143-64.15,143-143-64.15-143-143-143Zm-116.75,190.18c-15.43-24.08-17.64-50.28-17.84-53.08,8.48-29.95,23.31-45.18,26.24-47.97,15.71,2.18,35.38,2.91,41.17,3.08-.64,7.67.4,31.61,18.7,59.99-3.17,4.23-16.57,22.82-25.98,47.18-27.01,2.88-40.78-7.94-42.29-9.21Zm154.64-126.84c4.43,14.38,17.07,46.87,19.19,52.3-17.14,25.13-38.57,42.53-42.48,45.6-4.97-1.45-32.35-9.1-60.21-10.5-19.84-30.63-18.6-55.83-18.3-59.39l39.84-44.03c5.72.58,41.89,4.67,61.97,16.03Zm-84.82-47.01c-11.88,4.66-23.8,10.84-32.97,15.98,11.84-8.57,25.09-15.29,39.35-19.73-3.56,1.87-5.76,3.33-6.38,3.76Zm-63.57,70.41c-3,2.79-16.56,16.53-25.51,44,2.66-29.81,14.95-56.89,33.72-78.12-7.88,16.78-8.25,30.69-8.21,34.11Zm135.97,134.06c-.07-5.22-.83-35.1-8.63-57.24,4.61-3.65,25.68-20.99,42.7-45.83,19.19,6.16,41.71,10.17,46.43,10.97,1.64,4.29,9.12,25.58,9.2,56.58-22.65,32.9-37.91,43.09-40.14,44.47-32.06,1.99-46.66-6.92-49.55-8.96Zm102.85-31.04l-9.95-4.97c-.16-32.23-7.98-53.62-9.51-57.51,6.31-15.5,8.91-32.87,9.64-38.61,1.8.6,4.78,1.68,8.13,3.21,6.4,15.8,9.94,33.06,9.94,51.13,0,16.42-2.91,32.17-8.25,46.76Zm-3.51-102.19c-3.13-1.28-5.6-2.08-6.66-2.41-18.22-27.3-39.64-42.98-42.63-45.09-3.6-7.48-9.51-14.25-15.05-19.51,28.48,14.12,51.37,37.89,64.35,67.01Zm-74.62-71.59c6.22,4.89,16.44,13.94,21.85,24.33-17.02,6.9-29.65,17.11-33.01,19.98-20.84-11.57-56.45-15.55-62.7-16.18-6.5-13.43-15.98-22.74-19.81-26.17,3.51-2.14,12.09-6.87,23.99-10.12,6.37-.91,12.87-1.4,19.49-1.4,17.71,0,34.64,3.39,50.18,9.55Zm-163.52,203.13l.63-.06-.96-2.06c-3.75-8.01-3.46-18.02-3.04-22.76,4.47,3.06,15.29,8.88,33.14,8.88,2.94,0,6.08-.17,9.4-.52,1.44,2.38,5.71,9.2,11.83,16.98,6.84,8.69,17.44,20.35,29.47,27.21-1.47,12.2-.5,20.42.09,23.76-2.61.4-8.51.97-16.63-.22-26.16-10.19-48.44-28.22-63.92-51.19Zm97.49,59.53c-4.1-1.28-9.37-3.59-13.58-7.65-.4-1.92-1.87-10.35-.27-23.73,5.72-1.16,31.24-7.06,53.56-23.65,3.51,2.45,16.04,9.66,41.97,9.66,2.57,0,5.28-.08,8.12-.23.52,16.26-5.82,24.84-5.88,24.92l-1.76,2.27,3.09.33c-20.35,12.06-44.08,18.99-69.4,18.99-5.36,0-10.64-.32-15.84-.92Z"/>
        <ellipse class="cls-3" cx="325.16" cy="312.12" rx="46.79" ry="19.53" transform="translate(-124.78 285.73) rotate(-40.47)"/>
        <path class="cls-2" d="m341.22,288.26c-3.48-4.08-15.8.71-27.51,10.7-11.71,9.99-18.38,21.4-14.9,25.48,3.48,4.08,15.8-.71,27.51-10.7,11.71-9.99,18.38-21.4,14.9-25.48Z"/>
      </g>
    </g>
  </g>
</svg>